<svg width="30" height="31" viewBox="0 0 30 31" fill="none" xmlns="http://www.w3.org/2000/svg">
<g clip-path="url(#clip0)">
<path d="M17.8711 15.7841C17.8711 17.3765 16.5857 18.6674 15 18.6674C13.4143 18.6674 12.1289 17.3765 12.1289 15.7841C12.1289 14.1917 13.4143 12.9009 15 12.9009C16.5857 12.9009 17.8711 14.1917 17.8711 15.7841Z" fill="#E2AB3F"/>
<path d="M21.7144 10.6827C21.5764 10.3071 21.3562 9.96717 21.0701 9.68813C20.7923 9.40081 20.454 9.1797 20.0797 9.0411C19.7762 8.92272 19.3203 8.78182 18.4805 8.74344C17.5721 8.70184 17.2997 8.69287 14.9999 8.69287C12.6999 8.69287 12.4275 8.70161 11.5193 8.74321C10.6796 8.78182 10.2234 8.92272 9.92014 9.0411C9.54591 9.1797 9.2074 9.40081 8.92976 9.68813C8.64366 9.96717 8.42348 10.3069 8.28523 10.6827C8.16736 10.9875 8.02705 11.4456 7.98883 12.2889C7.9474 13.201 7.93848 13.4745 7.93848 15.7843C7.93848 18.0938 7.9474 18.3673 7.98883 19.2796C8.02705 20.1229 8.16736 20.5808 8.28523 20.8856C8.42348 21.2614 8.64343 21.6011 8.92953 21.8802C9.2074 22.1675 9.54568 22.3886 9.91991 22.5272C10.2234 22.6458 10.6796 22.7867 11.5193 22.8251C12.4275 22.8667 12.6997 22.8754 14.9997 22.8754C17.3 22.8754 17.5723 22.8667 18.4803 22.8251C19.3201 22.7867 19.7762 22.6458 20.0797 22.5272C20.8309 22.2362 21.4247 21.64 21.7144 20.8856C21.8323 20.5808 21.9726 20.1229 22.011 19.2796C22.0525 18.3673 22.0612 18.0938 22.0612 15.7843C22.0612 13.4745 22.0525 13.201 22.011 12.2889C21.9728 11.4456 21.8325 10.9875 21.7144 10.6827ZM14.9999 20.2257C12.5571 20.2257 10.5768 18.2372 10.5768 15.784C10.5768 13.3308 12.5571 11.3424 14.9999 11.3424C17.4426 11.3424 19.4229 13.3308 19.4229 15.784C19.4229 18.2372 17.4426 20.2257 14.9999 20.2257ZM19.5977 12.2048C19.0269 12.2048 18.5641 11.74 18.5641 11.1668C18.5641 10.5935 19.0269 10.1288 19.5977 10.1288C20.1685 10.1288 20.6313 10.5935 20.6313 11.1668C20.6311 11.74 20.1685 12.2048 19.5977 12.2048Z" fill="#E2AB3F"/>
<path d="M15 0.720703C6.717 0.720703 0 7.46616 0 15.7843C0 24.1024 6.717 30.8478 15 30.8478C23.283 30.8478 30 24.1024 30 15.7843C30 7.46616 23.283 0.720703 15 0.720703ZM23.5613 19.3504C23.5197 20.2712 23.3739 20.8998 23.161 21.4501C22.7135 22.612 21.7989 23.5305 20.6419 23.9799C20.0942 24.1936 19.468 24.3398 18.5513 24.3819C17.6328 24.4239 17.3394 24.434 15.0002 24.434C12.6608 24.434 12.3676 24.4239 11.4489 24.3819C10.5322 24.3398 9.90601 24.1936 9.35829 23.9799C8.78334 23.7626 8.26286 23.4222 7.83257 22.9821C7.39449 22.5502 7.05551 22.0273 6.83922 21.4501C6.62636 20.9001 6.48056 20.2712 6.4389 19.3506C6.39656 18.428 6.38672 18.1333 6.38672 15.7843C6.38672 13.4352 6.39656 13.1405 6.43867 12.2181C6.48033 11.2973 6.6259 10.6687 6.83876 10.1184C7.05505 9.54126 7.39426 9.01835 7.83257 8.58646C8.26263 8.14629 8.78334 7.80588 9.35806 7.58867C9.90601 7.37491 10.532 7.22872 11.4489 7.18666C12.3674 7.1446 12.6608 7.13448 15 7.13448C17.3392 7.13448 17.6326 7.1446 18.5511 7.18689C19.468 7.22872 20.094 7.37491 20.6419 7.58844C21.2167 7.80565 21.7374 8.14629 22.1677 8.58646C22.6057 9.01858 22.9449 9.54126 23.161 10.1184C23.3741 10.6687 23.5197 11.2973 23.5616 12.2181C23.6034 13.1405 23.6133 13.4352 23.6133 15.7843C23.6133 18.1333 23.6034 18.428 23.5613 19.3504Z" fill="#E2AB3F"/>
</g>
<defs>
<clipPath id="clip0">
<rect width="30" height="30.1271" fill="white" transform="translate(0 0.720703)"/>
</clipPath>
</defs>
</svg>
