<svg width="30" height="31" viewBox="0 0 30 31" fill="none" xmlns="http://www.w3.org/2000/svg">
<g clip-path="url(#clip0)">
<path d="M26.3377 4.05322H3.66853C1.64494 4.05322 0 5.70513 0 7.7373V23.2964C0 25.3286 1.64494 26.9805 3.66853 26.9805H26.3315C28.3551 26.9805 30 25.3286 30 23.2964V7.74353C30.0062 5.71137 28.3613 4.05322 26.3377 4.05322ZM28.3302 23.2964C28.3302 24.3998 27.4364 25.2974 26.3377 25.2974H3.66853C2.56983 25.2974 1.67598 24.3998 1.67598 23.2964V7.74353C1.67598 6.64018 2.56983 5.74254 3.66853 5.74254H26.3315C27.4302 5.74254 28.324 6.64018 28.324 7.74353V23.2964H28.3302Z" fill="#E2AB3F"/>
<path d="M18.9201 15.3235L26.2572 8.7158C26.5986 8.40412 26.6296 7.87426 26.3193 7.52518C26.0089 7.18233 25.4813 7.15116 25.1337 7.46284L15.0157 16.5826L13.0418 14.8123C13.0356 14.8061 13.0294 14.7998 13.0294 14.7936C12.9859 14.75 12.9425 14.7126 12.8928 14.6752L4.86054 7.45661C4.51293 7.14493 3.98531 7.1761 3.67494 7.52518C3.36458 7.87426 3.39561 8.40412 3.74322 8.7158L11.1672 15.3796L3.77426 22.33C3.43906 22.648 3.42044 23.1778 3.73702 23.5207C3.90461 23.6952 4.12808 23.7887 4.35154 23.7887C4.55638 23.7887 4.76122 23.7139 4.92261 23.5643L12.4273 16.5141L14.4633 18.3405C14.6247 18.4839 14.8233 18.5525 15.0219 18.5525C15.2206 18.5525 15.4254 18.4777 15.5806 18.3343L17.6725 16.4517L25.1337 23.5705C25.2951 23.7264 25.5061 23.8012 25.7109 23.8012C25.9344 23.8012 26.1517 23.7139 26.3193 23.5394C26.6358 23.2028 26.6234 22.6667 26.2882 22.3487L18.9201 15.3235Z" fill="#E2AB3F"/>
</g>
<defs>
<clipPath id="clip0">
<rect width="30" height="30.1271" fill="white" transform="translate(0 0.453125)"/>
</clipPath>
</defs>
</svg>
