<svg width="30" height="31" viewBox="0 0 30 31" fill="none" xmlns="http://www.w3.org/2000/svg">
<path d="M15 0.720703C6.717 0.720703 0 7.46616 0 15.7843C0 24.1024 6.717 30.8478 15 30.8478C23.283 30.8478 30 24.1024 30 15.7843C30 7.46616 23.283 0.720703 15 0.720703ZM23.5613 19.3504C23.5197 20.2712 23.3739 20.8998 23.161 21.4501C22.7135 22.612 21.7989 23.5305 20.6419 23.9799C20.0942 24.1936 19.468 24.3398 18.5513 24.3819C17.6328 24.4239 17.3394 24.434 15.0002 24.434C12.6608 24.434 12.3676 24.4239 11.4489 24.3819C10.5322 24.3398 9.90601 24.1936 9.35829 23.9799C8.78334 23.7626 8.26286 23.4222 7.83257 22.9821C7.39449 22.5502 7.05551 22.0273 6.83922 21.4501C6.62636 20.9001 6.48056 20.2712 6.4389 19.3506C6.39656 18.428 6.38672 18.1333 6.38672 15.7843C6.38672 13.4352 6.39656 13.1405 6.43867 12.2181C6.48033 11.2973 6.6259 10.6687 6.83876 10.1184C7.05505 9.54126 7.39426 9.01835 7.83257 8.58646C8.26263 8.14629 8.78334 7.80588 9.35806 7.58867C9.90601 7.37491 10.532 7.22872 11.4489 7.18666C12.3674 7.1446 12.6608 7.13448 15 7.13448C17.3392 7.13448 17.6326 7.1446 18.5511 7.18689C19.468 7.22872 20.094 7.37491 20.6419 7.58844C21.2167 7.80565 21.7374 8.14629 22.1677 8.58646C22.6057 9.01858 22.9449 9.54126 23.161 10.1184C23.3741 10.6687 23.5197 11.2973 23.5616 12.2181C23.6034 13.1405 23.6133 13.4352 23.6133 15.7843C23.6133 18.1333 23.6034 18.428 23.5613 19.3504Z" fill="#E2AB3F"/>
</svg>
