<svg width="30" height="31" viewBox="0 0 30 31" fill="none" xmlns="http://www.w3.org/2000/svg">
<g clip-path="url(#clip0)">
<path d="M17.4183 30.6519C17.2933 30.6722 17.1679 30.691 17.042 30.7081C17.1679 30.691 17.2933 30.6722 17.4183 30.6519Z" fill="black"/>
<path d="M17.7183 30.6001C17.6585 30.6111 17.5988 30.6211 17.5391 30.6314C17.5988 30.6211 17.6585 30.6111 17.7183 30.6001Z" fill="black"/>
<path d="M16.7077 30.75C16.5614 30.7665 16.4142 30.7811 16.2666 30.7934C16.4142 30.7811 16.5614 30.7665 16.7077 30.75Z" fill="black"/>
<path d="M16.9957 30.7148C16.9254 30.7242 16.8547 30.7329 16.7842 30.7411C16.8547 30.7329 16.9254 30.7242 16.9957 30.7148Z" fill="black"/>
<path d="M18.1271 30.519C18.0745 30.5302 18.0216 30.5415 17.9688 30.5522C18.0216 30.5415 18.0745 30.5302 18.1271 30.519Z" fill="black"/>
<path d="M19.1404 30.2661C19.0978 30.2782 19.0553 30.2897 19.0127 30.3015C19.0553 30.2897 19.0978 30.2782 19.1404 30.2661Z" fill="black"/>
<path d="M18.8345 30.3501C18.7882 30.3622 18.7418 30.3746 18.6953 30.3862C18.7418 30.3746 18.7882 30.3624 18.8345 30.3501Z" fill="black"/>
<path d="M18.433 30.4507C18.384 30.4621 18.3346 30.4729 18.2852 30.4838C18.3346 30.4729 18.384 30.4621 18.433 30.4507Z" fill="black"/>
<path d="M16.2615 30.7944C16.1826 30.8011 16.1036 30.807 16.0244 30.8123C16.1036 30.807 16.1826 30.8011 16.2615 30.7944Z" fill="black"/>
<path d="M30 15.7843C30 7.46616 23.283 0.720703 15 0.720703C6.717 0.720703 0 7.46616 0 15.7843C0 24.1024 6.717 30.8478 15 30.8478C15.0881 30.8478 15.1758 30.846 15.2637 30.8444V19.118H12.041V15.3464H15.2637V12.5709C15.2637 9.35209 17.2204 7.60016 20.0796 7.60016C21.4487 7.60016 22.6257 7.70268 22.9688 7.74842V11.1125H20.9972C19.4417 11.1125 19.1405 11.8549 19.1405 12.9442V15.3464H22.8598L22.375 19.118H19.1405V30.2658C25.4102 28.4608 30 22.66 30 15.7843Z" fill="#E2AB3F"/>
<path d="M15.9906 30.8145C15.8345 30.8245 15.6777 30.8325 15.5205 30.8378C15.6777 30.8325 15.8345 30.8245 15.9906 30.8145Z" fill="black"/>
<path d="M15.5127 30.8384C15.4298 30.8411 15.3468 30.8432 15.2637 30.8446C15.3468 30.8432 15.4298 30.8411 15.5127 30.8384Z" fill="black"/>
</g>
<defs>
<clipPath id="clip0">
<rect width="30" height="30.1271" fill="white" transform="translate(0 0.720703)"/>
</clipPath>
</defs>
</svg>
