<svg width="30" height="31" viewBox="0 0 30 31" fill="none" xmlns="http://www.w3.org/2000/svg">
<g clip-path="url(#clip0)">
<path d="M23.7091 18.942C23.0949 18.2998 22.3541 17.9565 21.569 17.9565C20.7902 17.9565 20.0431 18.2935 19.4036 18.9357L17.4027 20.9386C17.2381 20.8496 17.0735 20.7669 16.9152 20.6843C16.6873 20.5698 16.472 20.4617 16.2884 20.3473C14.4142 19.1519 12.7109 17.594 11.0774 15.5784C10.2859 14.5737 9.75404 13.728 9.36781 12.8696C9.88701 12.3927 10.3682 11.8968 10.8368 11.4199C11.0141 11.2418 11.1913 11.0575 11.3686 10.8794C12.6983 9.54412 12.6983 7.8146 11.3686 6.47931L9.64007 4.74343C9.44379 4.54631 9.24117 4.34284 9.05122 4.13936C8.67132 3.74514 8.27242 3.33819 7.86086 2.95668C7.24669 2.34626 6.51221 2.02197 5.73974 2.02197C4.96727 2.02197 4.22013 2.34626 3.58696 2.95668C3.58063 2.96304 3.58063 2.96304 3.5743 2.96939L1.42152 5.15037C0.61106 5.96426 0.148846 6.9562 0.0475384 8.10709C-0.104423 9.96378 0.440104 11.6933 0.857997 12.8251C1.88373 15.6038 3.41601 18.179 5.70175 20.9386C8.47504 24.2641 11.8118 26.8902 15.6235 28.7405C17.0798 29.4336 19.0237 30.2539 21.1954 30.3938C21.3284 30.4001 21.4677 30.4065 21.5943 30.4065C23.057 30.4065 24.2853 29.8787 25.2477 28.8296C25.2541 28.8168 25.2667 28.8105 25.2731 28.7978C25.6023 28.3972 25.9822 28.0347 26.3811 27.6469C26.6534 27.3862 26.932 27.1128 27.2042 26.8266C27.8311 26.1717 28.1603 25.4087 28.1603 24.6266C28.1603 23.8381 27.8247 23.0814 27.1852 22.4456L23.7091 18.942ZM25.9759 25.6376C25.9695 25.6376 25.9695 25.6439 25.9759 25.6376C25.7289 25.9046 25.4757 26.1463 25.2034 26.4133C24.7918 26.8075 24.374 27.2208 23.9814 27.685C23.3419 28.3717 22.5884 28.696 21.6007 28.696C21.5057 28.696 21.4044 28.696 21.3094 28.6897C19.4289 28.5689 17.6813 27.8313 16.3707 27.2018C12.7869 25.4595 9.64007 22.9861 7.02508 19.8513C4.86597 17.2379 3.42234 14.8217 2.46625 12.2274C1.8774 10.6441 1.66212 9.41059 1.7571 8.24698C1.82042 7.50303 2.10534 6.88625 2.63087 6.35849L4.78999 4.19023C5.10024 3.89774 5.42949 3.73878 5.75241 3.73878C6.1513 3.73878 6.47422 3.9804 6.67683 4.18387C6.68317 4.19023 6.6895 4.19659 6.69583 4.20295C7.08206 4.56539 7.4493 4.94054 7.83554 5.34113C8.03182 5.5446 8.23443 5.74807 8.43705 5.95791L10.1656 7.69379C10.8368 8.36779 10.8368 8.99093 10.1656 9.66493C9.98198 9.84933 9.8047 10.0337 9.62108 10.2118C9.08921 10.7586 8.58268 11.2673 8.03182 11.7632C8.01916 11.776 8.00649 11.7823 8.00016 11.795C7.45563 12.3419 7.55694 12.876 7.67091 13.2384C7.67724 13.2575 7.68358 13.2766 7.68991 13.2957C8.13946 14.3893 8.77263 15.4194 9.73505 16.6466L9.74138 16.653C11.4889 18.8149 13.3315 20.4999 15.3639 21.7907C15.6235 21.956 15.8895 22.0895 16.1427 22.2167C16.3707 22.3311 16.586 22.4392 16.7696 22.5537C16.7949 22.5664 16.8202 22.5855 16.8456 22.5982C17.0608 22.7063 17.2634 22.7572 17.4724 22.7572C17.9979 22.7572 18.3272 22.4265 18.4348 22.3184L20.6003 20.1438C20.8155 19.9276 21.1574 19.6669 21.5563 19.6669C21.9489 19.6669 22.2718 19.9149 22.4681 20.1311C22.4744 20.1374 22.4744 20.1374 22.4808 20.1438L25.9695 23.6474C26.6217 24.2959 26.6217 24.9636 25.9759 25.6376Z" fill="#E2AB3F"/>
<path d="M16.2124 7.44554C17.8713 7.72531 19.3782 8.51377 20.5813 9.72189C21.7843 10.93 22.5631 12.4433 22.848 14.1093C22.9176 14.5289 23.2786 14.8214 23.6901 14.8214C23.7408 14.8214 23.7851 14.8151 23.8357 14.8087C24.3043 14.7324 24.6145 14.2873 24.5386 13.8168C24.1966 11.8011 23.2469 9.96352 21.7969 8.50741C20.347 7.05131 18.5171 6.09753 16.51 5.75417C16.0414 5.67787 15.6045 5.98943 15.5222 6.45361C15.4399 6.91778 15.7438 7.36924 16.2124 7.44554Z" fill="#E2AB3F"/>
<path d="M29.9654 13.569C29.4019 10.2498 27.8443 7.22955 25.4509 4.82602C23.0575 2.42249 20.05 0.858293 16.7448 0.292384C16.2826 0.209723 15.8457 0.527649 15.7634 0.991823C15.6874 1.46235 15.9977 1.90109 16.4662 1.98375C19.4168 2.48608 22.1078 3.89131 24.2479 6.03414C26.388 8.18333 27.781 10.8857 28.2812 13.8488C28.3508 14.2684 28.7117 14.5609 29.1233 14.5609C29.1739 14.5609 29.2183 14.5546 29.2689 14.5482C29.7311 14.4783 30.0477 14.0332 29.9654 13.569Z" fill="#E2AB3F"/>
</g>
<defs>
<clipPath id="clip0">
<rect width="30" height="30.1271" fill="white" transform="translate(0 0.279297)"/>
</clipPath>
</defs>
</svg>
