<svg width="30" height="31" viewBox="0 0 30 31" fill="none" xmlns="http://www.w3.org/2000/svg">
<g clip-path="url(#clip0)">
<path d="M13.1318 18.6062L18.0111 15.784L13.1318 12.9619V18.6062Z" fill="#E2AB3F"/>
<path d="M15 0.720703C6.717 0.720703 0 7.46616 0 15.7843C0 24.1024 6.717 30.8478 15 30.8478C23.283 30.8478 30 24.1024 30 15.7843C30 7.46616 23.283 0.720703 15 0.720703ZM24.3727 15.7997C24.3727 15.7997 24.3727 18.8546 23.9868 20.3277C23.7705 21.1341 23.1374 21.7698 22.3345 21.9868C20.8676 22.3746 15 22.3746 15 22.3746C15 22.3746 9.14772 22.3746 7.66548 21.9714C6.86256 21.7544 6.22948 21.1184 6.01318 20.3121C5.62706 18.8546 5.62706 15.7843 5.62706 15.7843C5.62706 15.7843 5.62706 12.7295 6.01318 11.2564C6.22925 10.4501 6.8779 9.7987 7.66548 9.58172C9.13239 9.19396 15 9.19396 15 9.19396C15 9.19396 20.8676 9.19396 22.3345 9.59712C23.1374 9.8141 23.7705 10.4501 23.9868 11.2564C24.3883 12.7295 24.3727 15.7997 24.3727 15.7997Z" fill="#E2AB3F"/>
</g>
<defs>
<clipPath id="clip0">
<rect width="30" height="30.1271" fill="white" transform="translate(0 0.720703)"/>
</clipPath>
</defs>
</svg>
